<svg width="1410" height="1407" viewBox="0 0 1410 1407" fill="none" xmlns="http://www.w3.org/2000/svg">
<path d="M671.134 67.3324L671.401 133.999H727.267H783.001V122.666V111.332H738.334H693.667V95.3324V79.4657L710.734 79.0657L727.667 78.6657V67.3324V55.999L710.734 55.599L693.667 55.199V39.3324V23.3324H733.001H772.334V11.999V0.665683H721.534H670.867L671.134 67.3324Z" fill="white"/>
<path d="M873.133 13.866C872.467 14.9327 854.067 78.9327 851.533 88.666C845.667 112.533 853.933 135.599 873.8 149.866C878.867 153.599 891.533 158.133 917 165.333C920.733 166.399 927.8 168.399 932.867 169.866C937.8 171.466 942.467 172.666 943 172.666C943.8 172.666 949.667 153.733 949.667 150.933C949.667 150.533 947.533 149.733 945 149.199C942.467 148.799 940.333 147.599 940.333 146.666C940.333 145.733 942.867 136.399 945.8 125.866C948.867 115.333 951.8 104.799 952.333 102.666C953 100.399 956.2 89.066 959.667 77.3327C968.6 46.7994 969.8 41.9994 969.133 40.7994C968.333 39.5994 948.6 34.5327 947.8 35.466C947.267 35.9994 940.733 58.266 929.667 97.3327C916.867 142.666 917.533 140.933 914.467 140.266C893.8 135.199 884.467 130.666 879.267 123.066C870.067 109.599 870.6 104.266 887.8 46.666C891.267 34.9327 894.2 23.866 894.2 22.1327C894.333 19.3327 893.267 18.666 883.933 15.9994C878.333 14.266 873.4 13.3327 873.133 13.866Z" fill="white"/>
<path d="M569.401 15.9996C569.001 16.3996 562.467 18.5329 554.867 20.5329C534.067 26.2663 474.334 43.5996 473.934 44.1329C473.667 44.2663 474.067 46.3996 474.867 48.9329C475.667 51.3329 478.467 60.5329 481.001 69.3329C487.001 90.3996 496.201 122.533 498.201 130C501.801 142.666 510.201 172 510.467 172.4C510.734 172.666 519.667 170.4 530.601 167.2C541.401 164.133 553.934 160.533 558.334 159.333C597.267 148.4 615.801 142.8 616.867 142C618.601 140.266 610.067 112.8 605.534 105.733C603.267 102.4 598.867 97.0663 595.534 93.9996C589.801 88.6663 577.667 81.9996 573.801 81.9996C571.934 81.9996 572.067 81.1996 575.801 71.3329C579.667 60.6663 579.801 49.4663 575.801 34.3996C571.667 18.5329 570.467 14.9329 569.401 15.9996ZM556.067 52.3996C556.601 59.7329 551.401 71.3329 545.001 77.4663C541.534 80.6663 536.601 83.0663 527.667 85.9996C520.601 88.1329 514.067 89.9996 513.001 89.9996C511.267 89.9996 506.067 75.4663 503.667 63.5996C502.867 59.7329 503.134 59.1996 506.601 58.5329C508.601 58.1329 519.001 55.1996 529.667 51.9996C540.334 48.7996 550.467 46.2663 552.334 46.3996C555.267 46.6663 555.667 47.3329 556.067 52.3996ZM573.001 107.2C579.667 110.8 588.334 120.4 588.334 124.4C588.334 126.133 584.067 127.866 569.267 131.866C558.867 134.8 546.734 138.266 542.334 139.6C538.067 140.933 532.601 142.133 530.467 142.4C526.467 142.666 526.334 142.533 522.201 128.666C519.801 120.933 518.334 114.266 518.867 113.6C519.667 112.8 545.401 105.066 554.334 102.933C558.867 101.866 566.067 103.466 573.001 107.2Z" fill="white"/>
<path d="M354.6 105.199C338.467 111.199 329.134 119.599 321.667 135.599C318.067 143.199 317.667 145.333 317.667 157.733C317.667 174 319.8 179.733 333.934 201.599C348.6 224.133 361.4 231.733 384.334 231.866C404.6 231.999 418.2 225.466 429.667 210.133C441.4 194.533 443.8 171.6 435.534 153.999C429.667 141.733 417.667 123.599 410.867 117.066C396.467 103.199 373.4 98.3995 354.6 105.199ZM387.134 128.799C393.267 131.866 399.534 138.933 407.267 151.333C415.534 164.666 418.067 171.733 417.134 179.599C414.067 206.933 381.534 219.333 362.6 200.266C354.867 192.533 341.667 170.266 340.734 163.6C337.134 137.066 363.8 117.066 387.134 128.799Z" fill="white"/>
<path d="M1029.4 116.265C1028.33 118.399 1024.73 124.799 1021.67 130.665C1018.6 136.532 1013.8 145.199 1011 149.999C1008.2 154.799 1003.93 162.532 1001.4 167.332C998.867 172.132 995.134 178.932 993.267 182.532C991.267 186.132 989.667 189.599 989.667 190.265C989.667 190.799 993.667 193.332 998.734 195.732C1009.8 201.199 1021.4 207.732 1030.6 213.465C1034.33 215.999 1037.93 217.999 1038.33 217.999C1039.4 217.999 1074.2 241.732 1084.33 249.465C1095.13 257.599 1112.2 271.332 1118.73 277.065C1123.67 281.465 1171.8 329.865 1176.07 334.665C1186.6 346.799 1200.33 364.265 1209 376.665C1219.93 392.132 1229.13 405.465 1231 408.799C1232.07 410.665 1236.6 418.399 1241 425.999C1258.47 455.999 1273.93 488.399 1284.47 517.332C1291.4 536.132 1292.07 538.399 1295.67 550.665C1307.13 589.332 1314.33 625.065 1317.93 660.265L1319.53 675.332H1364.33H1409.27L1408.73 665.865C1408.47 660.665 1407.67 651.599 1407 645.599C1406.2 639.599 1405.4 632.265 1405.13 629.332C1403.53 615.065 1397.67 583.865 1391.8 559.599C1381.93 518.399 1364.07 468.799 1344.6 428.665C1338.33 415.599 1322.73 386.265 1318.33 379.199C1317.67 377.999 1315.53 374.399 1313.93 371.332C1306.47 357.865 1275 312.265 1267 303.599C1264.87 301.199 1263 298.799 1263 298.265C1263 297.465 1255 287.999 1239.93 270.932C1215.93 243.865 1180.33 209.599 1158.6 192.932C1155.93 190.932 1148.87 185.332 1142.73 180.532C1126.47 167.599 1095.13 145.999 1092.6 145.999C1091.8 145.999 1091 145.465 1090.73 144.799C1089.67 141.999 1037 112.665 1033 112.665C1032.2 112.665 1030.6 114.265 1029.4 116.265ZM1044.2 134.532C1045.4 135.465 1050.73 138.532 1056.07 141.332C1064.6 145.732 1065.8 146.799 1065.13 149.332C1064.73 150.932 1058.87 161.599 1052.07 173.065C1038.87 195.465 1037.67 196.532 1031 191.332L1027.67 188.799L1030.73 183.065C1032.33 179.865 1034.2 176.399 1035 175.332C1035.67 174.265 1039 168.665 1042.2 163.065L1048.2 152.665L1041.53 149.065C1037.93 146.932 1035 144.665 1035 143.732C1035 141.865 1040.33 132.665 1041.4 132.665C1041.8 132.665 1043.13 133.465 1044.2 134.532ZM1109.13 175.465C1126.07 187.199 1127 188.132 1127 194.665C1127 200.532 1126.73 200.932 1113.4 218.799C1104.07 231.332 1102.6 232.665 1096.73 232.665C1092.73 232.665 1059 209.199 1059 206.532C1059 205.465 1060.73 202.799 1062.73 200.532L1066.47 196.399L1075.67 203.065C1098.73 219.865 1096.6 218.665 1098.47 215.999C1100.73 212.932 1099.4 211.065 1090.33 205.199C1072.07 193.332 1070.73 187.732 1082.6 172.932C1089.4 164.532 1093.8 164.932 1109.13 175.465ZM1168.47 223.065C1176.2 230.132 1184.47 237.732 1186.87 239.732L1191.13 243.465L1187 248.799L1182.73 253.999L1177.93 249.999C1175.13 247.865 1168.87 242.132 1163.67 237.465L1154.33 228.665L1151.67 231.465L1149 234.132L1160.07 244.132C1170.87 253.999 1171 254.265 1171 260.532C1171 266.265 1170.47 267.465 1164.87 273.065C1153.27 284.799 1152.6 284.532 1121.93 255.999L1116.2 250.665L1119.67 245.599C1122.87 240.932 1126.2 239.199 1127.27 241.732C1127.93 243.599 1151.93 264.665 1153.4 264.665C1154.07 264.665 1155.13 263.599 1155.67 262.265C1156.33 260.532 1153.4 257.065 1143.13 247.332L1129.8 234.665L1140.73 222.399C1146.73 215.732 1152.33 210.132 1153 210.132C1153.8 209.999 1160.73 215.865 1168.47 223.065ZM1213.53 269.332C1215.67 270.399 1221.93 276.532 1227.53 282.932C1236.73 293.599 1237.67 295.199 1237.67 300.265C1237.67 306.799 1236.87 307.865 1219.8 322.665C1208.2 332.799 1207.93 332.932 1202.07 332.265C1197.93 331.865 1195.13 330.532 1193.13 328.399C1183.93 317.999 1171.4 303.599 1169.8 301.599C1168.2 299.465 1168.33 298.799 1171.67 295.332C1173.8 293.065 1176.47 291.332 1177.8 291.332C1179 291.332 1182.07 293.999 1184.47 297.065C1187 300.265 1192.2 306.399 1196.07 310.532C1201.93 316.932 1203.4 317.999 1205 316.665C1206.07 315.732 1207 314.532 1207 313.999C1207 313.465 1202.87 307.999 1197.67 301.865C1184.33 286.132 1184.73 282.399 1200.87 270.265C1205.4 266.799 1208.33 266.665 1213.53 269.332ZM1241.53 348.132C1245.93 354.399 1249.67 360.132 1249.67 360.799C1249.67 362.265 1243 368.532 1241.4 368.665C1240.33 368.665 1225.93 349.465 1224.73 346.399C1224.2 345.065 1225.53 342.932 1228.47 340.532C1231 338.399 1233.13 336.665 1233.13 336.665C1233.27 336.665 1237 341.865 1241.53 348.132ZM1292.87 371.465C1307.8 397.065 1309.93 401.332 1309.93 406.132C1309.93 408.932 1309.27 412.265 1308.6 413.599C1306.73 416.932 1294.47 423.332 1289.93 423.332C1284.2 423.332 1281 420.265 1273.53 406.932C1269.67 400.265 1266.47 394.532 1266.2 394.265C1265.8 393.599 1260.33 397.199 1260.33 398.265C1260.33 398.665 1263.93 405.199 1268.33 412.665C1272.73 420.132 1276.33 426.799 1276.33 427.465C1276.33 428.132 1277 428.665 1277.67 428.665C1280.47 428.665 1278.73 432.132 1274.87 434.265C1268.47 437.999 1266.07 437.332 1262.87 431.065C1261.4 428.132 1256.33 419.199 1251.67 411.465C1247 403.599 1243 396.132 1242.73 394.799C1242.47 392.932 1244.73 390.799 1251.67 386.532C1268.33 375.999 1273.27 378.265 1286.6 402.665C1288.73 406.799 1290.2 407.865 1292.47 407.599C1294.2 407.465 1295.8 407.065 1296.07 406.665C1296.73 405.999 1291 395.332 1283.4 382.799C1280.2 377.599 1277.67 372.932 1277.67 372.399C1277.67 370.799 1286.07 365.865 1288.2 366.265C1289.27 366.532 1291.4 368.799 1292.87 371.465ZM1329.93 443.199C1333 446.132 1343 469.465 1343.8 475.999C1344.87 483.599 1342.2 486.132 1324.33 493.999C1305.67 502.265 1299.67 502.665 1294.47 496.532C1292.6 494.265 1291 491.865 1291 491.199C1291 490.399 1289.53 486.665 1287.8 482.932C1286.07 479.065 1283.53 472.932 1282.2 469.199C1279.93 462.532 1279.93 462.265 1282.47 457.865C1284.73 453.999 1287.67 452.265 1302.87 445.732C1321.8 437.732 1323.8 437.599 1329.93 443.199ZM1361.27 521.332C1369.13 547.065 1369.93 550.399 1369.13 555.065C1368.2 561.065 1365.4 563.732 1357.13 566.532C1343 571.199 1339.13 568.399 1333.53 549.332C1331.4 541.999 1329.13 535.599 1328.47 534.932C1327.8 534.265 1326.07 534.399 1324.6 535.199C1321.53 536.799 1321.4 535.465 1327.4 554.665C1329.27 560.532 1331.13 567.199 1331.67 569.599C1332.47 573.732 1332.33 573.865 1326.87 575.332C1323.8 576.132 1320.87 576.399 1320.33 575.732C1319.27 574.399 1316.07 565.465 1313.27 555.332C1312.07 551.332 1309.93 543.865 1308.47 538.799C1306.87 533.865 1305.67 528.932 1305.67 527.999C1305.67 527.065 1309.13 525.332 1313.4 524.132C1317.53 522.799 1322.6 521.199 1324.6 520.399C1329.13 518.665 1336.87 521.065 1339.67 525.065C1340.87 526.665 1342.33 530.399 1343.13 533.332C1347.13 549.065 1348.87 553.999 1350.87 553.999C1353.93 553.999 1356.73 551.865 1355.8 550.265C1354.2 547.599 1345.53 516.399 1346.2 515.599C1348.2 513.599 1353.27 511.599 1355.67 511.732C1357.8 511.999 1359 513.999 1361.27 521.332ZM1350.33 596.399C1354.07 599.065 1361.4 604.399 1366.87 607.999C1383 618.932 1385.27 621.599 1386.2 629.599C1387 638.132 1385.8 638.532 1377.53 632.265C1361.93 620.665 1349.67 612.799 1349.67 614.532C1349.67 615.465 1350.07 618.265 1350.47 620.532C1351.27 624.399 1351.67 624.665 1355.8 623.865C1359.8 623.065 1360.47 623.465 1361.67 626.799C1363.93 632.665 1362.87 635.732 1358.07 637.199C1354.2 638.265 1353.8 638.932 1354.07 642.399C1354.33 646.132 1353.93 646.532 1349.13 647.599C1343.4 648.799 1340.33 647.332 1340.33 643.199C1340.33 641.199 1339.4 640.665 1335.67 640.665C1332.87 640.665 1331 639.999 1330.87 638.932C1330.07 628.665 1330.2 627.999 1334.07 627.599C1337.4 627.199 1337.8 626.665 1337.13 623.599C1336.47 619.599 1335.27 612.665 1334.07 604.932C1332.6 594.932 1332.73 593.599 1336.33 592.532C1342.2 590.932 1343.53 591.199 1350.33 596.399Z" fill="white"/>
<path d="M1091 184.532C1090.33 185.999 1089.67 187.332 1089.67 187.732C1089.67 187.999 1093.93 191.066 1099 194.532C1106.73 199.866 1108.73 200.666 1110.33 199.332C1111.4 198.399 1112.33 196.932 1112.33 196.132C1112.2 194.532 1095.93 181.999 1093.8 181.999C1093 181.999 1091.8 183.199 1091 184.532Z" fill="white"/>
<path d="M1204.73 284.266C1201.67 285.466 1202.87 287.866 1210.87 296.666C1217.67 304.133 1219 305.066 1220.87 303.466C1224.2 300.666 1223.53 299.199 1216.2 290.933C1209.67 283.599 1208.2 282.799 1204.73 284.266Z" fill="white"/>
<path d="M1307.4 458.4C1300.6 461.466 1295 464.4 1295 464.933C1295 465.466 1297.27 470.666 1299.93 476.666C1305.4 488.8 1303.93 488.4 1319.8 481.2C1325.27 478.8 1329.67 476.133 1329.67 475.333C1329.67 474.533 1328.47 471.333 1327.13 468.266C1325.8 465.2 1323.67 460.4 1322.6 457.6C1321.4 454.933 1320.33 452.666 1320.07 452.8C1319.8 452.8 1314.07 455.333 1307.4 458.4Z" fill="white"/>
<path d="M217.533 207.466L210.467 215.6L216.467 221.2C219.667 224.133 230.6 234.133 240.733 243.2C250.733 252.266 259 260.133 259 260.666C259 261.2 254.067 266.933 247.933 273.466C241.933 280 232.467 290.4 227 296.666C221.667 302.933 216.733 308.133 216.333 308.4C215.8 308.533 210.467 304 204.2 298.4C198.067 292.666 187.133 282.666 179.933 276.266L166.867 264.533L158.867 272.933L151 281.333L158.6 288.4C162.867 292.4 174.2 302.533 183.667 311.066C193.267 319.6 204.333 329.6 208.333 333.466C217.4 342 238.733 361.066 245.8 367.2L251.133 371.866L258.333 363.866C262.333 359.6 265.533 355.333 265.667 354.533C265.667 353.733 262.467 350.4 258.733 347.2C245.667 336.266 233.533 324.266 234.733 323.466C235.4 323.066 240.867 316.933 247 310C253.133 303.066 262.467 292.666 267.8 286.8L277.533 276.4L293.533 290.533C311.667 306.666 309.8 306.4 320.333 294.8L326.333 288.266L320.2 282.8C316.867 279.866 304.333 268.666 292.467 258C280.6 247.333 266.467 234.666 260.867 229.866C255.4 224.933 245.8 216.266 239.533 210.533C233.267 204.666 227.4 199.866 226.467 199.6C225.533 199.333 221.533 202.933 217.533 207.466Z" fill="white"/>
<path d="M108.734 378.532C76.0668 389.199 61.1335 426.532 77.0002 457.999C82.8668 469.599 91.9335 477.732 107.534 485.199C114.2 488.399 130.867 496.532 144.734 503.199C158.467 509.865 170.334 515.332 171 515.332C172.2 515.332 181.667 497.999 181.667 495.999C181.667 495.465 173 491.065 162.334 485.999C151.667 480.932 143 476.265 143 475.599C143 474.932 149 462.265 156.334 447.465C163.667 432.665 169.667 419.999 169.667 419.332C169.667 418.532 170.2 417.999 170.867 417.999C171.934 417.999 204.2 433.065 209.934 436.132C210.867 436.665 220.334 419.065 220.334 416.665C220.334 415.865 210.867 410.665 199.4 405.065C187.8 399.599 170.2 391.065 160.334 386.265L142.334 377.465L128.334 377.065C119 376.799 112.467 377.332 108.734 378.532ZM141.4 403.332C145.934 405.465 149.667 407.599 149.667 407.999C149.667 408.399 144.6 418.799 138.467 431.065C132.334 443.332 126.2 455.599 125 458.399C123.667 461.332 121.8 463.865 120.734 464.265C118.467 465.199 108.867 460.132 103.8 455.599C95.2668 447.599 91.1335 430.665 95.2668 421.065C99.2668 411.865 103.4 407.332 111.4 403.332C122.2 397.999 130.067 397.999 141.4 403.332Z" fill="white"/>
<path d="M597.667 528.533C573.933 530.4 558.467 537.333 543.267 552.667C533.667 562.4 527.4 573.2 523.4 586.8C521.4 593.6 521 602.8 520.6 656.933C520.067 727.867 520.733 734.933 528.867 751.867C540.867 776.8 564.333 792.4 595.667 796.133C625 799.6 654.6 794.667 672.467 783.333C681 777.733 694.2 763.467 698.467 755.067C706.333 739.6 707.4 734 707.4 707.333C707.533 684 707.4 682.267 704.067 673.733C698.867 660 692.6 650.533 682.333 640.933C671.4 630.8 659 624.4 644.333 621.333C631.533 618.8 596.467 618.667 584.333 621.333C579.667 622.267 575.267 622.8 574.6 622.4C573.933 622 573.667 617.067 573.933 611.467C574.733 596.933 579.4 588.8 589.667 584.4C594.733 582.133 598.467 581.733 614.333 581.733C625 581.733 634.733 582.4 637 583.333C645.933 586.667 652.2 594.133 654.2 603.6L655 607.333H681.8H708.6L707.667 598.933C705.533 580 695.533 560.533 681.533 548.267C673.4 541.067 659.267 533.6 648.333 530.533C639.533 528.133 615 527.2 597.667 528.533ZM636.467 674.667C649.533 679.333 654.867 688.667 655 706.667C655 722.4 653.267 728.133 646.467 734.8C639.8 741.6 632.733 743.333 613.267 743.333C591.267 743.333 583.4 739.733 577.133 727.067C574.2 721.067 573.667 718.4 573.667 708.133C573.8 690 578.067 681.6 590.333 675.867C596.2 673.067 599 672.667 613.8 672.667C625.667 672.667 632.467 673.333 636.467 674.667Z" fill="white"/>
<path d="M777 528.933C776.067 529.599 774.6 534.399 773.667 539.599C772.867 544.933 771.667 552.266 771 555.999C770.333 559.599 768.867 568.399 767.667 575.333C766.467 582.266 765 590.933 764.333 594.666C763.667 598.266 762.733 603.466 762.333 605.999C759.933 622.933 756.2 643.866 752.867 660.933C751.667 666.666 751.133 671.866 751.667 672.666C752.333 673.733 768.733 674.133 806.2 673.866C865.667 673.599 863.933 673.333 872.067 682.533C877.4 688.666 879 694.666 879 709.066C879 725.866 875.133 733.733 864.067 739.466C859.8 741.599 856.6 741.866 838.067 741.599C818.733 741.333 816.6 741.066 812.067 738.266C806.333 734.666 801.533 727.466 800.333 720.799L799.667 715.999L774.333 715.733C760.333 715.599 748.067 715.733 746.867 715.999C745.133 716.533 745 717.999 745.933 725.599C748.6 747.733 760.067 767.733 777.533 780.399C795.133 793.333 807.667 796.666 838.467 796.666C870.067 796.666 884.333 793.066 901.133 780.533C916.2 769.466 927.267 752.399 931.8 733.333C934.867 720.133 933.8 685.999 929.933 675.333C919.933 647.199 900.467 629.066 872.2 621.066C865.267 619.199 859.133 618.799 839.267 618.933C816.867 619.199 814.867 619.066 815.533 616.933C816.2 614.799 821.667 584.266 821.667 582.799C821.667 582.399 844.6 581.866 872.6 581.733C920.6 581.333 923.4 581.199 923.8 578.933C924.6 573.733 927.4 556.799 929 547.333C930.067 541.866 931.133 535.199 931.533 532.533L932.333 527.866H855.533C813.4 527.999 778.067 528.399 777 528.933Z" fill="white"/>
<path d="M22.4672 546.933C22.0672 548.266 21.1339 553.466 20.3339 558.666C19.6672 563.733 17.9339 574.533 16.4672 582.533C13.5339 598.8 14.0672 606.8 19.0005 619.733C24.0672 633.2 39.8005 647.6 53.6672 651.333C57.9339 652.533 78.4672 656.266 104.867 660.8C109.267 661.466 113.267 662.4 113.934 662.8C114.467 663.2 114.601 665.866 114.201 668.666L113.401 673.733L119.801 674.666C123.401 675.2 128.467 676 131.001 676.533L135.801 677.6L138.067 664.8C139.401 657.733 141.401 646.933 142.467 640.666C143.534 634.4 144.867 626.266 145.534 622.666C146.201 618.933 147.801 610.266 149.001 603.333C150.201 596.4 152.067 586.533 153.134 581.466C155.934 567.6 156.067 567.733 148.067 566.133C134.601 563.6 118.067 560.666 87.6672 555.333C70.8672 552.4 52.2005 549.2 46.3339 548.133C25.4005 544.266 23.4005 544.133 22.4672 546.933ZM56.6005 573.333C63.1339 574.533 73.2672 576.266 79.2672 577.333C85.4005 578.4 98.6005 580.666 108.734 582.533C118.867 584.266 127.401 586 127.801 586.266C128.467 587.066 119.534 638 118.467 638.933C118.067 639.333 114.334 639.066 110.067 638.133C105.801 637.333 93.6672 635.066 83.0005 633.333C58.7339 629.066 55.8005 628.133 49.4005 622.266C41.6672 615.333 38.6005 608.4 38.4672 598C38.4672 587.333 41.4005 571.333 43.5339 571.333C44.3339 571.333 50.2005 572.266 56.6005 573.333Z" fill="white"/>
<path d="M1336.2 712.132C1333.13 715.465 1333 716.399 1332.6 737.465L1332.2 759.332H1338.87H1345.67V740.665C1345.67 722.799 1345.8 721.999 1348.33 721.999C1351 721.999 1351.13 722.665 1350.87 739.465C1350.73 749.332 1351.13 757.332 1351.93 758.132C1352.6 758.799 1358.6 759.332 1365.13 759.065L1377 758.665L1379.27 753.999C1381.27 750.265 1381.67 745.732 1381.67 730.532C1381.67 717.865 1381.13 711.332 1380.07 710.265C1379 709.199 1372.33 708.665 1359 708.665C1339.67 708.665 1339.4 708.665 1336.2 712.132ZM1367.67 734.799C1367.67 745.065 1367.4 746.665 1365.4 747.065C1363.27 747.465 1363 746.265 1363 735.599C1363 729.065 1363.4 723.332 1363.93 722.799C1366.6 720.265 1367.67 723.732 1367.67 734.799Z" fill="white"/>
<path d="M130.867 719.867C130.6 720.133 122.6 721.067 113 722C103.267 722.8 92.2002 724.667 87.8002 726.133C77.4002 729.6 66.6002 736.933 61.9335 743.467C59.9335 746.267 57.9335 748.667 57.4002 748.667C56.8668 748.667 55.0002 747.333 53.1335 745.6C51.2668 743.867 45.6668 740.533 40.7335 738C33.2668 734.4 29.6668 733.467 20.3335 733.067C14.0668 732.667 6.86683 732.933 4.3335 733.6C-0.73317 735.067 -0.599836 734.4 1.00016 749.067L1.9335 756.8L11.8002 755.867C21.1335 755.067 22.2002 755.2 30.2002 759.2C34.8668 761.467 40.2002 765.333 42.0668 767.733C45.1335 771.867 49.6668 781.067 49.6668 783.333C49.6668 784.133 39.6668 785.467 13.9335 788.133L5.66683 788.933L6.46683 799.733C7.00016 805.733 7.66683 811.067 8.20016 811.6C8.60016 812.133 15.0002 811.733 22.3335 810.667C29.6668 809.733 39.5335 808.667 44.0668 808.4L52.6002 807.867L51.6668 813.867C49.2668 830 38.2002 840.4 20.3335 843.2C15.6668 844 11.6668 844.8 11.4002 845.2C10.8668 845.733 13.4002 866.133 14.0668 866.933C14.3335 867.2 19.1335 866.8 24.6002 866C39.0002 864.267 48.2002 859.733 58.4668 849.333L67.2668 840.667L72.0668 844.667C74.7335 846.8 80.3335 850.133 84.3335 852.267C90.7335 855.467 93.5335 856 105.667 856.4C113.4 856.533 125.667 856 133 855.067L146.334 853.2L146.067 848.667C145.934 846.133 145.534 840.933 145 837.067C144.2 830.4 143.934 830.133 140.6 830.667C127.534 832.667 106.334 834.133 102.2 833.333C89.6668 831.067 78.3335 820.667 75.8002 809.2L74.8668 805.067L91.2668 803.467C100.334 802.533 114.467 800.933 122.734 799.867C131.134 798.8 138.467 798 139.134 798C140.467 798 140.734 787.733 139.4 780.267L138.6 775.2L129.8 776C125 776.4 113.534 777.6 104.334 778.667C69.6668 782.533 72.3335 782.533 72.3335 778.4C72.3335 770.133 75.2668 764 82.8668 756.533C91.4002 748 93.2668 747.333 119.4 744.533L135.267 742.8L134.334 733.333C133.8 728.267 133.267 723.333 133.134 722.4C132.867 720.4 131.667 719.067 130.867 719.867Z" fill="white"/>
<path d="M1329 794.133L1328.07 802.267L1334.33 808.667L1340.6 814.933L1332.33 820C1327.8 822.667 1324.47 825.6 1324.73 826.533C1325.13 827.333 1324.87 831.067 1324.33 834.667C1323.8 838.4 1323.53 841.6 1323.67 841.867C1323.93 842 1329.27 838.933 1335.53 834.8C1341.8 830.667 1347.67 826.933 1348.6 826.667C1349.53 826.267 1354.87 830.533 1360.33 836C1365.8 841.467 1370.6 846 1371.13 846C1371.67 846 1372.47 842.267 1372.87 837.867L1373.8 829.6L1367.67 823.333L1361.4 816.933L1366.07 814.667C1374.33 810.8 1377.13 807.2 1378.2 799.467C1378.73 795.6 1378.87 792 1378.47 791.6C1378.07 791.2 1372.33 794.4 1365.8 798.533C1359.27 802.667 1353.4 806 1352.73 806C1352.2 806 1347.13 801.467 1341.67 796C1336.2 790.533 1331.27 786 1330.87 786C1330.33 786 1329.53 789.6 1329 794.133Z" fill="white"/>
<path d="M1318.2 861.598C1316.6 869.065 1316.6 869.198 1321 870.265C1334.87 873.598 1340.73 875.198 1341.27 875.865C1341.67 876.265 1339.93 876.265 1337.4 875.865C1331.27 874.798 1330.07 876.665 1326.2 892.265C1324.47 899.332 1322.6 905.465 1322.33 905.865C1321.93 906.265 1318.87 905.865 1315.67 904.932C1312.33 903.998 1309.13 903.332 1308.47 903.332C1307.27 903.332 1303.8 915.198 1304.6 916.132C1305.53 916.932 1342.33 926.398 1347 926.932L1351.67 927.465L1355.93 911.065C1358.33 901.998 1360.47 892.798 1360.6 890.665C1360.87 886.132 1358.33 880.665 1356.07 880.665C1355.27 880.665 1354.87 880.398 1355.27 879.998C1355.67 879.598 1357.53 879.865 1359.4 880.532C1363.53 882.132 1365.4 879.865 1365.93 872.532L1366.33 868.265L1355 865.198C1348.73 863.598 1339 861.065 1333.4 859.465C1327.67 857.865 1322.2 856.665 1321.13 856.665C1320.07 856.665 1318.87 858.798 1318.2 861.598ZM1346.2 892.532C1346.6 893.198 1345.93 897.732 1344.73 902.532C1342.73 910.132 1341.93 911.332 1339.4 911.332C1336.87 911.332 1336.33 910.532 1336.33 907.465C1336.33 905.465 1337 901.732 1337.8 899.198C1338.6 896.665 1339.4 893.865 1339.8 892.932C1340.33 891.065 1345.13 890.798 1346.2 892.532Z" fill="white"/>
<path d="M635 877.865C625.4 880.799 617.4 887.865 612.467 897.599C609.8 903.065 609.667 904.932 609.933 933.599L610.333 963.999L614.867 964.399C617.4 964.665 620.6 964.532 622.2 964.132C625 963.465 625 962.932 624.6 936.132C624.2 910.665 624.467 908.399 627 903.332C631.267 895.065 636.2 892.665 649.4 892.665H660.333V928.799V964.799L667.4 964.399L674.333 963.999L674.733 923.332C675 901.065 674.733 881.332 674.333 879.732C673.667 876.665 673.267 876.665 655.933 876.799C646.333 876.799 636.867 877.332 635 877.865Z" fill="white"/>
<path d="M688.334 920.666V964.666H722.067C740.467 964.666 757.001 964.266 758.734 963.866C761.267 963.066 761.667 962.133 761.667 955.866V948.666L732.734 948.399L703.667 947.999L703.267 938.799C703.001 932.399 703.401 929.199 704.601 928.399C705.534 927.733 710.201 927.466 715.001 927.599L723.667 927.999L724.067 920.399L724.467 912.799L714.067 912.399L703.667 911.999V901.999V891.999H728.734H753.667V884.266V876.666H721.001H688.334V920.666Z" fill="white"/>
<path d="M775 883.865C775 889.199 775.533 891.199 777.133 891.865C778.333 892.265 784.867 892.665 791.8 892.665H804.333V927.999V963.332H811.667H819V927.999V892.665L829 892.532C834.467 892.399 839.667 892.132 840.333 891.999C841.133 891.865 843.133 891.599 845 891.465C848.067 891.332 848.333 890.932 848.333 883.999V876.665H811.667H775V883.865Z" fill="white"/>
<path d="M139.267 915.199C137.801 915.999 138.734 920.132 143.534 935.465C150.601 957.599 153.134 961.465 167.534 971.199C172.734 974.799 179.001 979.865 181.534 982.399C185.801 986.799 186.067 987.599 185.267 993.732C184.867 997.199 182.067 1006.27 179.001 1013.87C166.734 1044.27 170.334 1050.13 204.334 1054.13C211.267 1054.93 219.534 1056.67 222.601 1058C229.667 1061.07 230.734 1065.6 227.667 1078C220.201 1106.93 219.934 1109.6 222.601 1114.93C226.201 1122.4 229.001 1123.33 251.001 1123.33C267.134 1123.33 271.267 1123.87 276.067 1126L281.667 1128.53V1138.8C281.667 1144.53 281.001 1154 280.067 1159.87C278.334 1172.8 279.401 1179.73 283.801 1184.27C287.401 1187.87 284.334 1187.87 325.667 1185.2C337.001 1184.53 338.601 1184.67 340.601 1186.93C343.667 1190.53 345.667 1201.6 345.801 1217.07C345.934 1234.27 347.534 1239.2 354.334 1242.53C359.001 1244.8 360.201 1244.93 367.534 1243.47C372.067 1242.53 380.734 1240.27 386.867 1238.53C393.001 1236.8 400.467 1235.33 403.667 1235.33C408.601 1235.33 409.934 1236 413.801 1240.4C416.334 1243.07 420.467 1249.6 423.001 1254.67C429.134 1266.93 437.534 1275.2 447.667 1279.33C452.067 1281.07 459.667 1284.4 464.601 1286.93C469.534 1289.33 474.201 1291.33 474.867 1291.33C475.534 1291.33 476.734 1289.47 477.534 1287.33C479.134 1282.67 479.401 1282.8 458.334 1274.13C442.334 1267.47 437.801 1263.33 430.867 1249.6C424.467 1237.2 417.801 1229.33 411.534 1227.33C405.401 1225.2 395.401 1226.53 379.134 1231.47C372.067 1233.6 364.334 1235.33 361.934 1235.33C355.401 1235.33 353.667 1230.13 353.667 1210.27C353.667 1177.07 347.401 1172.27 310.734 1177.47C298.201 1179.2 292.867 1179.47 291.267 1178.4C288.867 1176.93 288.867 1175.73 289.801 1142.4C290.334 1129.07 290.067 1127.2 287.534 1123.73C282.334 1116.67 277.667 1115.47 256.334 1115.33C232.467 1115.33 230.201 1114.4 230.734 1105.87C230.867 1102.67 232.601 1094.53 234.334 1087.87C242.467 1057.87 237.134 1049.33 208.067 1045.87C192.734 1044.13 184.734 1042.13 182.201 1039.73C179.801 1037.33 180.467 1034.67 187.934 1016C194.734 999.065 195.801 992.799 193.801 985.065C192.067 978.532 187.534 973.599 176.734 966.665C167.001 960.399 160.734 954.532 158.067 949.332C156.867 947.199 153.801 938.532 151.001 929.999C145.934 914.399 144.067 911.999 139.267 915.199Z" fill="white"/>
<path d="M97.2668 928.932C95.1335 930.532 95.4001 931.732 99.8001 945.332C110.467 977.065 110.867 977.865 130.867 991.732C139.4 997.865 142.467 1000.8 144.333 1005.2C147.4 1011.87 146.867 1014.53 139 1036.4C130.867 1059.07 131.8 1066.27 143.533 1072C147.267 1073.73 154.6 1075.87 159.667 1076.53C180.467 1079.47 187.933 1081.87 191.267 1086.67C193.133 1089.2 192.333 1101.2 189.667 1112.4C185.533 1129.33 185 1136.67 187.4 1142.27C190.467 1149.6 194.2 1150.8 217.4 1151.87C239.533 1152.8 245.533 1154.53 248.333 1160.4C249.4 1162.8 249.533 1170.27 248.867 1185.87C248.067 1205.07 248.2 1208.67 250.2 1212.27C251.4 1214.67 253.133 1216.93 253.933 1217.6C257.667 1219.87 273.4 1220.27 287 1218.53C294.733 1217.47 302.867 1217.07 305.267 1217.47C313.8 1219.07 317.667 1227.47 317.667 1244.53C317.667 1260 320.067 1270.93 324.333 1275.87C327.933 1279.73 328.6 1280 337.267 1279.87C342.333 1279.87 352.733 1278.13 361 1276.13C377.133 1272.13 385.4 1272.13 389.8 1276.13C391.4 1277.47 396.333 1284.8 400.733 1292.4C405.267 1300 411.133 1308.13 413.667 1310.53C416.2 1312.8 427 1318.53 437.533 1323.2C455.8 1331.33 456.733 1331.6 458.467 1329.33C459.533 1328 460.333 1326.13 460.333 1325.2C460.333 1324.4 451.933 1319.87 441.533 1315.2C420.067 1305.6 415.933 1302 407.533 1285.87C395.667 1263.2 386.333 1260 355.4 1267.87C337.133 1272.53 331.933 1272.4 329.667 1267.6C328.733 1265.6 327.533 1256.8 326.867 1248C325.133 1223.6 323.4 1217.6 316.067 1212.53C311.267 1209.07 301.8 1208.53 276.2 1210.53L260.6 1211.73L258.333 1208.13C256.067 1204.8 256.067 1203.2 257.667 1185.6C259.533 1164.53 258.733 1158.4 253 1151.6C248.467 1146.13 242.333 1144.67 219.267 1143.6C196.2 1142.4 194.467 1141.6 194.733 1132.93C194.867 1130.13 196.2 1123.07 197.667 1117.2C199.267 1111.47 200.733 1102.13 201.133 1096.67C201.8 1087.73 201.667 1086.13 198.733 1082C194.733 1076 186.6 1072 174.6 1070C142.6 1064.8 140.333 1063.47 143.533 1051.87C144.6 1048.27 147.533 1039.2 150.2 1031.6C159.133 1005.87 156.2 997.732 131.533 981.065C119.133 972.665 117.267 969.599 110.067 947.332C103.533 926.799 102.333 925.199 97.2668 928.932Z" fill="white"/>
<path d="M1290.33 953.333C1280.33 978.266 1280.2 977.999 1298.33 985.466C1311.67 990.933 1311.67 990.933 1311.27 995.199C1311 997.599 1311.53 1000.4 1312.47 1001.47C1314.2 1003.6 1323.4 1008.67 1325.27 1008.67C1325.8 1008.67 1327.4 1006.13 1328.73 1002.93C1331 997.466 1331 997.333 1328.6 995.599C1326.07 993.866 1326.07 993.733 1328.6 986.933C1330.07 983.066 1332.07 978.133 1333 975.999C1334.07 973.733 1336.07 968.933 1337.4 965.333C1339.53 959.999 1340.6 958.666 1343.13 958.666C1346.2 958.666 1348.2 955.999 1350.2 949.199C1350.87 946.799 1350.33 945.999 1347.4 944.933C1345.4 944.133 1341.4 942.666 1338.6 941.466C1333.67 939.333 1333.67 939.333 1332.2 942.533C1330.47 946.266 1329.93 946.133 1311.4 938.133C1306.07 935.866 1301 933.999 1299.93 933.999C1298.73 933.999 1295.13 941.333 1290.33 953.333ZM1317.27 955.466C1320.33 956.933 1323.53 957.999 1324.2 957.999C1325 957.999 1325.67 958.133 1325.67 958.399C1325.67 960.133 1317.53 977.333 1316.73 977.333C1313.53 977.333 1299 970.799 1299 969.333C1299 967.599 1302.07 959.599 1304.6 954.266C1306.33 951.066 1307.53 951.066 1317.27 955.466Z" fill="white"/>
<path d="M56.7339 941.999C52.8672 943.599 52.8672 944.266 57.8006 959.333C68.4672 992.133 70.3339 995.066 89.0006 1008.67C109.001 1023.47 109.801 1027.07 100.067 1056C97.8006 1062.53 95.6672 1071.87 95.4006 1076.67C94.8672 1084.13 95.1339 1085.87 97.6672 1089.07C101.934 1094.53 106.867 1096.53 124.734 1100.13C153.401 1106.13 157.267 1109.2 155.801 1125.07C155.401 1130.4 154.067 1138 153.001 1142C150.601 1150.8 150.334 1166.4 152.467 1170.4C156.467 1177.73 164.334 1180.13 188.467 1181.2C203.534 1181.87 209.934 1183.73 214.334 1188.67C216.867 1191.47 217.001 1193.2 216.601 1214.67C216.201 1235.87 216.467 1238.27 219.001 1243.2C223.667 1252.4 226.467 1253.2 253.934 1252C274.601 1251.2 278.201 1251.33 281.001 1253.2C287.134 1257.2 289.134 1264.67 291.667 1292C292.867 1303.6 294.734 1308.4 300.201 1313.07C305.801 1317.73 313.401 1317.87 333.667 1313.33C361.934 1307.07 365.267 1308.53 380.867 1333.6C389.667 1347.73 395.134 1353.07 405.667 1357.6C409.667 1359.33 418.867 1363.6 425.934 1366.93C433.134 1370.4 439.134 1372.93 439.401 1372.53C439.534 1372.27 440.467 1370.4 441.401 1368.4C442.867 1364.8 442.734 1364.53 436.334 1361.33C432.734 1359.47 425.401 1356.27 420.067 1354.13C401.134 1346.67 397.934 1344.13 387.667 1327.73C376.067 1309.33 372.334 1305.33 363.934 1302.53C358.067 1300.53 355.801 1300.53 345.801 1302C339.534 1302.93 331.667 1304.53 328.334 1305.47C325.001 1306.53 318.601 1307.33 314.067 1307.33C306.867 1307.33 305.401 1306.93 303.801 1304.4C301.401 1300.53 299.001 1287.73 299.001 1278C299.001 1267.73 294.734 1253.33 290.334 1248.67C284.867 1242.93 277.267 1241.47 260.601 1242.67C238.201 1244.53 231.401 1244.27 229.001 1241.87C225.401 1238.27 224.467 1230.67 225.934 1215.47C228.067 1192.4 224.201 1180.8 212.734 1176C210.067 1174.93 199.534 1173.33 189.134 1172.67C168.467 1171.07 162.334 1169.73 160.334 1166C158.334 1162.4 158.601 1158.93 162.334 1140.13C166.467 1119.2 166.467 1116.13 162.734 1108.67C158.734 1100.8 150.867 1096.67 134.734 1093.47C120.334 1090.67 111.001 1088.13 107.134 1086C102.867 1083.73 103.534 1074.4 109.001 1057.87C115.134 1039.73 116.334 1027.2 112.601 1020C109.534 1014 103.001 1007.47 92.3339 999.733C83.6672 993.466 77.2672 986.533 74.6006 980.399C73.5339 977.999 70.0672 967.999 66.8672 958.266C63.8006 948.666 60.8672 940.666 60.4672 940.799C60.0672 940.799 58.3339 941.333 56.7339 941.999Z" fill="white"/>
<path d="M1267 1002.93C1263.13 1010.13 1257.67 1020.27 1254.73 1025.6L1249.53 1035.2L1254.87 1037.87C1257.8 1039.47 1260.73 1040.67 1261.27 1040.67C1261.93 1040.67 1264.33 1037.07 1266.73 1032.67C1269.27 1028.27 1271.4 1024.67 1271.67 1024.67C1271.93 1024.67 1278.87 1028.27 1287.13 1032.8C1295.27 1037.2 1302.07 1040.67 1302.2 1040.4C1305.67 1035.73 1308.47 1029.6 1307.53 1028.67C1306.87 1028.13 1300.33 1024.53 1293 1020.67C1285.67 1016.8 1279.27 1013.2 1278.6 1012.67C1278.07 1012.27 1279.4 1008.53 1281.67 1004.53C1283.8 1000.53 1285.67 996.933 1285.67 996.533C1285.67 995.866 1275.93 989.999 1274.6 989.999C1274.2 989.999 1270.73 995.866 1267 1002.93Z" fill="white"/>
<path d="M1242.87 1048.53C1237.4 1052.8 1223.93 1073.6 1223.53 1078.4C1223.13 1084.67 1225.67 1087.73 1239.13 1096.8C1257.93 1109.47 1260.07 1108.8 1274.2 1087.33C1285.4 1070.4 1284.6 1067.2 1266.07 1054.67C1252.2 1045.47 1248.07 1044.4 1242.87 1048.53ZM1258.6 1066.13C1263.27 1069.2 1267 1072.27 1267 1072.93C1267 1074.93 1256.33 1090 1254.87 1090C1253.13 1090 1237.67 1079.6 1237.67 1078.4C1237.67 1077.33 1248.87 1060.8 1249.53 1060.67C1249.93 1060.67 1253.93 1063.2 1258.6 1066.13Z" fill="white"/>
<path d="M1187.4 1124.4C1184.47 1124.8 1177.8 1131.2 1163.13 1148L1155 1157.2L1159.27 1161.6C1161.67 1164 1163.8 1166 1164.2 1166C1164.73 1166 1170.33 1160 1176.87 1152.67C1187.67 1140.27 1192.33 1136.8 1192.33 1140.93C1192.33 1141.87 1187.27 1148.4 1181 1155.33C1174.73 1162.27 1169.67 1168.67 1169.67 1169.47C1169.67 1170.4 1173 1174.13 1177.13 1177.87C1183.53 1183.73 1185.27 1184.67 1190.07 1184.67C1194.87 1184.67 1196.2 1183.87 1202.07 1177.6C1220.07 1158.4 1223.27 1154.13 1222.47 1151.07C1221.53 1147.73 1197.27 1126.13 1193 1124.8C1191.53 1124.27 1189 1124.13 1187.4 1124.4ZM1202.73 1156.53C1192.33 1168.13 1189.67 1170.53 1188.2 1169.07C1186.07 1166.93 1201.67 1149.73 1204.07 1151.73C1205.4 1152.8 1205.13 1153.73 1202.73 1156.53Z" fill="white"/>
<path d="M1134.6 1175.6C1110.2 1196.27 1105.93 1200 1105.8 1200.67C1105.8 1201.07 1107.53 1203.33 1109.8 1205.73L1113.8 1210.27L1120.73 1204.8C1124.6 1201.73 1131 1196.27 1135 1192.67C1142.73 1185.6 1143.67 1185.2 1145 1187.33C1145.8 1188.67 1139 1195.33 1125 1206.93C1121 1210.27 1117.67 1213.33 1117.67 1213.87C1117.67 1214.27 1119.4 1216.67 1121.53 1219.2L1125.27 1223.73L1136.87 1213.87C1155 1198.53 1154.87 1198.67 1156.47 1200.27C1157.53 1201.33 1153.93 1205.2 1143.8 1214C1136.07 1220.8 1129.67 1227.07 1129.67 1227.87C1129.67 1228.8 1131.4 1231.2 1133.67 1233.33L1137.53 1237.07L1148.6 1227.6C1167.93 1211.2 1170.73 1208.27 1171.67 1202.93C1172.47 1198.67 1172.07 1197.47 1168.2 1192.93C1165.67 1190 1159.8 1183.07 1155 1177.47C1150.33 1171.87 1145.93 1167.33 1145.4 1167.33C1144.87 1167.33 1140.07 1171.07 1134.6 1175.6Z" fill="white"/>
<path d="M1080.33 1218.93C1078.07 1219.87 1049.8 1238.93 1047.13 1241.47C1045.53 1242.8 1045.8 1243.87 1048.2 1247.87C1049.93 1250.53 1051.67 1252.67 1052.33 1252.67C1053 1252.67 1060.2 1248.13 1068.33 1242.53C1079.53 1235.07 1083.67 1232.8 1084.87 1234C1086.6 1235.87 1083.53 1238.53 1068.07 1248.93C1061 1253.6 1057.67 1256.67 1057.67 1258.53C1057.67 1261.73 1065 1273.47 1068.73 1276C1074.07 1279.73 1079 1278.4 1091.67 1269.87C1110.07 1257.33 1112.33 1255.47 1112.33 1252.4C1112.33 1250.93 1109.53 1245.73 1105.93 1240.8C1102.47 1236 1097.93 1229.47 1095.93 1226.27C1091.4 1219.33 1086.07 1216.8 1080.33 1218.93ZM1095 1249.87C1095 1251.87 1076.47 1263.6 1075 1262.67C1072.6 1261.2 1073.93 1259.73 1083.53 1253.47C1091.93 1247.87 1095 1246.93 1095 1249.87Z" fill="white"/>
<path d="M1006.6 1244.67C987.667 1254.67 984.867 1256.8 983.134 1263.07C981.934 1266.93 982.867 1269.33 991.8 1287.07C997.267 1297.87 1003 1307.73 1004.47 1308.93C1005.93 1310.27 1009.27 1311.6 1011.93 1312.13C1016.07 1312.93 1018.6 1312 1030.2 1306C1047.93 1296.8 1049.67 1295.2 1049.67 1287.47C1049.67 1282.8 1048.2 1278.8 1043.8 1270.67C1035 1254.53 1030.73 1253.33 1012.33 1262.67C999.534 1269.07 997.667 1269.6 997.667 1266.93C997.667 1266 1005.13 1261.33 1014.33 1256.67C1023.53 1252 1031 1247.73 1031 1247.07C1031 1245.07 1025.67 1235.33 1024.6 1235.47C1024.07 1235.47 1015.93 1239.6 1006.6 1244.67ZM1032.2 1278.67C1034.47 1282.67 1036.33 1286.27 1036.33 1286.67C1036.33 1288 1014.87 1298 1013.53 1297.2C1012.2 1296.4 1006.6 1285.07 1006.47 1282.93C1006.33 1281.73 1024.2 1271.47 1026.6 1271.33C1027.4 1271.33 1029.93 1274.67 1032.2 1278.67Z" fill="white"/>
<path d="M931.001 1281.33C926.201 1283.07 916.334 1286.4 909.001 1288.67C901.667 1291.07 894.467 1293.47 893.001 1294C878.201 1299.73 826.734 1309.73 787.001 1314.53C762.734 1317.6 692.467 1317.73 669.934 1314.8C630.867 1309.73 617.267 1307.47 595.667 1302.53C577.267 1298.4 560.467 1294 557.001 1292.53C550.601 1289.87 530.867 1284.53 529.801 1285.2C529.134 1285.6 528.334 1287.33 527.934 1288.93C527.534 1290.67 524.734 1298 521.667 1305.33C518.601 1312.67 512.867 1326.8 508.867 1336.67C504.867 1346.53 500.734 1356.53 499.667 1358.93C495.667 1367.47 495.667 1367.6 519.401 1375.07C551.134 1385.2 592.601 1395.33 610.334 1397.33C614.734 1397.87 620.467 1398.8 623.001 1399.33C625.534 1400 639.134 1401.87 653.001 1403.47C687.001 1407.47 763.934 1407.87 796.334 1404.13C832.467 1400.13 873.001 1392.93 896.334 1386.67C923.001 1379.47 943.001 1373.2 961.001 1366.67C968.334 1364 976.201 1361.2 978.334 1360.4C986.734 1357.33 987.534 1360.4 966.734 1320.67C947.801 1284.93 943.801 1278 941.801 1278C940.601 1278.13 935.801 1279.6 931.001 1281.33Z" fill="white"/>
</svg>
